<?xml version="1.0" standalone="no"?>
<!DOCTYPE svg PUBLIC "-//W3C//DTD SVG 20010904//EN"
 "http://www.w3.org/TR/2001/REC-SVG-20010904/DTD/svg10.dtd">
<svg version="1.0" xmlns="http://www.w3.org/2000/svg"
 width="64px" height="64px" viewBox="0 0 2000 2000"
 preserveAspectRatio="xMidYMid meet">

<g transform="translate(0.000000,2000) scale(0.100000,-0.100000)"
fill="#000000" stroke="none">

<path d="M11500 17890 l0 -110 -225 0 -225 0 0 -115 0 -115 -225 0 -225 0 0
-115 c0 -63 -3 -114 -7 -114 -5 1 -106 1 -225 0 l-218 -1 0 -110 0 -110 -225
0 -225 0 0 -110 0 -110 -222 -2 -223 -3 -3 -112 -3 -113 -224 0 -225 0 0 -110
0 -110 -222 -2 -223 -3 -3 -112 -3 -113 -224 0 -225 0 0 -110 0 -110 -225 0
-225 0 0 -115 0 -115 230 0 230 0 0 110 0 110 225 0 225 0 0 110 0 110 223 2
222 3 3 113 3 112 224 0 225 0 0 110 0 110 223 2 222 3 3 113 3 112 224 0 225
0 0 115 0 115 225 0 225 0 0 110 0 110 220 0 220 0 0 110 0 110 230 0 230 0 0
115 0 115 220 0 220 0 0 -3375 0 -3375 -225 0 -225 0 0 -110 0 -110 -227 -2
-228 -3 -3 -112 -3 -113 -224 0 -224 0 -3 -107 -3 -108 -220 -5 -220 -5 -3
-112 -3 -113 -219 0 -220 0 0 -115 0 -115 -232 -2 -233 -3 -3 -99 c-2 -73 1
-102 10 -108 7 -4 -92 -8 -219 -8 l-233 0 0 -110 0 -110 -220 0 -220 0 0 -115
0 -115 -227 -2 -228 -3 -3 -103 -3 -102 -222 -2 -222 -2 230 -6 230 -6 -232
-2 -233 -2 0 -110 0 -110 -225 0 -225 0 0 -112 0 -113 -222 0 -223 0 -3 -112
-3 -113 -224 0 -225 0 0 -110 0 -110 -222 -2 -223 -3 -5 -115 -5 -115 -220 0
-220 0 -3 -112 -3 -113 -224 0 -225 0 0 -115 0 -115 -220 0 -220 0 0 -110 0
-110 -230 0 -230 0 0 -110 0 -110 -225 0 -225 0 0 -115 0 -115 -225 0 -225 0
0 -115 0 -115 -335 0 -335 0 0 3045 0 3045 -110 0 -110 0 0 220 0 220 225 0
225 0 0 110 0 110 225 0 225 0 0 115 0 115 225 0 225 0 0 110 0 110 225 0 225
0 0 115 0 115 230 0 230 0 0 110 0 110 220 0 c255 0 228 -15 232 133 2 51 -1
89 -7 91 -5 3 95 5 223 5 l232 1 0 110 0 110 220 0 220 0 0 115 0 115 225 0
225 0 0 110 0 110 228 2 227 3 3 113 3 112 219 0 220 0 0 115 0 115 225 0 225
0 0 105 c0 77 3 105 13 105 8 0 7 4 -3 10 -9 6 -111 10 -237 10 l-223 0 0
-110 0 -110 -225 0 -225 0 0 -115 0 -115 -225 0 -225 0 0 -115 0 -115 -225 0
-225 0 0 -115 0 -115 -225 0 -225 0 0 -110 0 -110 -225 0 -225 0 0 -110 0
-110 -225 0 -225 0 0 -115 0 -115 -228 -2 -227 -3 -3 -112 -3 -113 -224 0
-225 0 0 -110 0 -110 -220 0 -220 0 -1 -100 c-1 -55 -2 -106 -3 -112 -1 -10
-54 -14 -224 -16 l-222 -2 0 -110 0 -110 -227 -2 -228 -3 -3 -107 -3 -108
-109 0 -110 0 0 -115 0 -115 -115 0 -115 0 0 -3155 0 -3155 225 0 224 0 3
-112 3 -113 228 -3 227 -2 0 -450 0 -450 222 -2 223 -3 3 -107 3 -108 219 0
219 0 3 -112 3 -113 222 -3 222 -2 3 -108 3 -107 227 -3 228 -2 0 -115 0 -115
225 0 225 0 0 -115 0 -115 225 0 225 0 0 -110 0 -110 225 0 225 0 0 -115 0
-115 225 0 225 0 0 -110 0 -110 225 0 225 0 0 -115 0 -115 225 0 225 0 0 -110
0 -110 223 -2 222 -3 3 -113 3 -112 224 0 225 0 0 -110 0 -110 225 0 225 0 0
-115 0 -115 225 0 225 0 0 -110 0 -110 225 0 225 0 0 -115 0 -115 225 0 225 0
0 115 0 115 225 0 225 0 0 110 0 110 225 0 225 0 0 115 0 115 -230 0 -230 0 0
-110 0 -110 -220 0 -220 0 0 -115 0 -115 -225 0 -225 0 0 450 0 450 -225 0
-225 0 0 110 0 110 -222 2 -223 3 -3 113 -3 112 -222 0 -222 0 3 110 3 110
-230 0 -231 0 0 115 0 115 -225 0 -225 0 0 110 0 110 -225 0 -224 0 -3 118 -3
117 -222 3 -223 2 0 110 0 110 -225 0 -225 0 0 110 0 110 -222 2 -223 3 -3
113 -3 112 -224 0 -225 0 0 110 0 110 -225 0 -225 0 0 115 0 115 -225 0 -224
0 -3 113 -3 112 -222 3 -223 2 0 110 0 110 -225 0 -225 0 0 220 0 220 225 0
225 0 0 110 0 110 223 2 222 3 3 112 3 113 227 2 227 3 0 110 0 110 225 5 225
5 5 103 c3 64 1 103 -5 104 -5 1 94 5 220 8 l230 5 3 113 3 112 219 0 220 0 0
110 0 110 225 0 225 0 0 115 0 115 228 2 227 3 3 113 3 112 219 0 220 0 0 110
0 110 225 0 225 0 0 115 0 115 230 0 230 0 0 110 0 110 225 0 225 0 0 115 c0
63 3 114 8 114 4 -1 105 -1 225 0 l217 1 0 110 0 110 225 0 225 0 0 115 0 115
225 0 225 0 0 110 0 110 223 2 222 3 3 113 3 112 224 0 225 0 0 110 0 110 220
0 220 0 0 115 0 115 230 0 230 0 0 110 0 110 225 0 225 0 0 115 0 115 220 0
220 0 0 -115 0 -115 225 0 225 0 0 -110 0 -110 225 0 225 0 0 -115 0 -115 225
0 225 0 0 -110 0 -110 225 0 225 0 0 115 0 115 -225 0 -225 0 0 110 0 110
-222 2 -223 3 -3 113 -3 112 -224 0 -225 0 0 110 0 110 -222 2 -223 3 -3 113
-3 112 -109 0 -110 0 0 3270 0 3270 -110 0 -110 0 0 110 0 110 -230 0 -230 0
0 -110z"/>
<path d="M10827 16204 c-4 -4 -7 -56 -7 -116 l0 -108 -225 0 -225 0 0 -110 0
-110 -225 0 -225 0 0 -115 0 -115 -225 0 -225 0 0 -110 0 -110 -225 0 -225 0
0 -112 0 -113 -222 0 -223 0 -3 -117 -3 -118 -224 0 -225 0 0 -112 0 -113
-207 3 c-115 2 -218 0 -231 -3 -23 -6 -23 -8 -20 -115 l3 -110 -222 0 -223 0
0 -110 0 -110 -225 0 -225 0 0 -115 0 -115 -227 -2 -228 -3 -3 -112 -3 -113
-219 0 -220 0 0 -110 0 -110 -225 0 -225 0 0 -110 0 -110 -225 0 -225 0 0
-115 0 -115 -225 0 -225 0 0 -109 0 -110 -222 -1 c-123 0 -226 -4 -231 -9 -5
-5 -7 -56 -5 -115 l3 -106 -227 0 -228 0 0 -115 0 -115 -225 0 -225 0 0 -110
0 -110 -110 0 -110 0 0 -2150 0 -2150 110 0 110 0 0 -110 0 -110 235 0 235 0
0 110 0 110 222 2 223 3 3 113 3 112 224 0 225 0 0 115 0 115 225 0 225 0 0
110 0 110 225 0 225 0 0 115 0 115 225 0 225 0 0 110 0 110 225 0 225 0 0 115
0 116 223 -1 222 -2 3 111 3 111 224 0 225 0 0 115 0 115 225 0 225 0 0 110 0
110 225 0 225 0 0 115 0 115 225 0 225 0 0 110 0 110 228 2 227 3 3 113 3 112
219 0 220 0 0 110 0 110 225 0 225 0 0 115 0 115 225 0 225 0 0 110 0 110 225
0 225 0 0 115 c0 63 3 114 8 114 4 -1 105 -1 225 0 l217 1 0 115 0 115 115 0
115 0 2 2148 3 2147 -117 -3 -117 -3 -3 113 -3 113 -221 3 c-121 1 -223 -1
-227 -4z"/>
<path d="M6114 14950 c0 -58 1 -81 3 -52 2 28 2 76 0 105 -2 28 -3 5 -3 -53z"/>
<path d="M11727 10344 c-4 -4 -7 -56 -7 -116 l0 -108 -225 0 -225 0 0 -115 0
-115 -225 0 -225 0 0 -110 0 -110 -225 0 -225 0 0 -110 0 -110 -225 0 -225 0
0 -115 0 -115 -225 0 -225 0 0 -115 0 -115 -225 0 -225 0 0 -110 0 -110 -225
0 -225 0 0 -112 0 -113 -222 0 -223 0 -3 -112 -3 -113 -229 0 -230 0 0 -110 0
-110 -220 0 -219 0 -3 -112 -3 -113 -222 -3 -223 -2 0 -115 0 -115 -227 -2
-228 -3 0 -113 0 -112 -222 0 -223 0 0 -110 0 -110 -225 0 -225 0 0 -112 0
-113 -225 3 -225 3 0 -116 0 -115 -225 0 -225 0 0 -120 0 -120 225 0 225 0 0
-110 0 -110 225 0 225 0 0 -115 0 -115 225 0 225 0 0 -110 0 -110 220 0 219 0
3 -112 3 -113 228 -3 227 -2 0 -110 0 -110 223 -2 222 -3 3 -112 3 -113 222 0
222 0 -3 -110 -3 -110 235 0 236 0 0 110 0 110 225 0 225 0 0 114 0 115 222 1
c123 0 226 4 231 9 5 5 7 54 5 110 l-3 101 223 0 222 0 0 115 0 115 225 0 225
0 0 110 0 110 225 0 225 0 0 115 0 115 225 0 225 0 0 110 0 110 225 0 225 0 0
113 0 112 227 0 228 0 3 113 3 112 225 0 225 0 -3 115 -3 115 223 0 222 0 0
110 0 110 228 2 227 3 3 113 3 112 219 0 220 0 0 110 0 110 225 0 225 0 0 115
0 115 228 2 227 3 3 113 3 112 219 0 220 0 0 110 0 110 230 0 230 0 0 120 0
120 -230 0 -230 0 0 110 0 110 -220 0 -220 0 0 115 0 115 -230 0 -230 0 0 115
0 115 -225 0 -225 0 0 110 0 110 -220 0 -220 0 0 110 0 110 -230 0 -230 0 0
115 0 115 -220 0 -219 0 -3 113 -3 112 -226 3 c-124 1 -228 -1 -232 -4z m453
-564 l0 -110 -225 0 -225 0 0 110 0 110 225 0 225 0 0 -110z m-450 -230 l0
-110 225 0 225 0 0 -110 0 -110 -225 0 -225 0 0 110 0 110 -225 0 -225 0 0
110 0 110 225 0 225 0 0 -110z m-460 -220 l0 -110 -220 0 -220 0 0 110 0 110
220 0 220 0 0 -110z m1808 -2 l3 -108 -226 0 -225 0 0 110 0 110 223 -2 222
-3 3 -107z m-2258 -228 l0 -110 -220 0 -220 0 0 110 0 110 220 0 220 0 0 -110z
m1810 0 l0 -110 223 -2 222 -3 3 -107 3 -108 -226 0 -225 0 0 110 0 110 -225
0 -225 0 0 -110 0 -110 -225 0 -226 0 3 108 3 107 223 3 222 2 0 110 0 110
225 0 225 0 0 -110z m-2260 -220 l0 -110 -220 0 -220 0 0 110 0 110 220 0 220
0 0 -110z m900 0 l0 -109 -220 -3 -220 -3 0 113 0 112 220 0 220 0 0 -110z
m2708 -2 l3 -108 -226 0 -225 0 0 110 0 110 223 -2 222 -3 3 -107z m-4058
-228 l0 -110 -220 0 -220 0 0 110 0 110 220 0 220 0 0 -110z m1810 0 l0 -110
225 0 225 0 0 -110 0 -110 -225 0 -225 0 0 110 0 110 -225 0 -225 0 0 110 0
110 225 0 225 0 0 -110z m1800 0 l0 -110 223 -2 222 -3 3 -107 3 -108 -226 0
-225 0 0 110 0 110 -225 0 -225 0 0 -110 0 -110 -225 0 -225 0 0 110 0 110
225 0 225 0 0 110 0 110 225 0 225 0 0 -110z m-4060 -220 l0 -110 -220 0 -220
0 0 110 0 110 220 0 220 0 0 -110z m900 0 l0 -110 -220 0 -220 0 0 110 0 110
220 0 220 0 0 -110z m900 0 l0 -110 -220 0 -220 0 0 110 0 110 220 0 220 0 0
-110z m-2250 -230 l0 -110 -220 0 -220 0 0 110 0 110 220 0 220 0 0 -110z
m1800 0 l0 -110 -220 0 -220 0 0 110 0 110 220 0 220 0 0 -110z m1810 0 l0
-110 223 -2 222 -3 3 -112 3 -113 -226 0 -225 0 0 115 0 115 -225 0 -225 0 0
-115 0 -115 -225 0 -226 0 3 113 3 112 223 3 222 2 0 110 0 110 225 0 225 0 0
-110z m-4060 -225 l0 -115 -220 0 -220 0 0 115 0 115 220 0 220 0 0 -115z
m900 0 l0 -115 -220 0 -220 0 0 115 0 115 220 0 220 0 0 -115z m900 0 l0 -115
-220 0 -220 0 0 115 0 115 220 0 220 0 0 -115z m900 0 l0 -115 -220 0 -220 0
0 115 0 115 220 0 220 0 0 -115z m-1350 -232 l0 -113 -220 0 -220 0 0 113 0
112 220 0 220 0 0 -112z m1808 -1 l-3 -107 -222 -3 -223 -2 0 112 0 113 225
-3 226 -3 -3 -107z m-3600 1 l-3 -108 -225 0 -225 0 -3 108 -3 107 231 0 231
0 -3 -107z m-458 -223 l0 -110 -225 0 -225 0 0 -110 0 -110 -219 0 -220 0 -3
106 c-2 58 -1 108 1 110 2 2 103 4 223 4 l218 0 0 110 0 110 225 0 225 0 0
-110z m900 0 l0 -110 -220 0 -220 0 0 110 0 110 220 0 220 0 0 -110z m902 0
l3 -110 -222 0 -223 0 0 110 0 110 219 0 220 0 3 -110z m898 0 l0 -110 -220 0
-220 0 0 110 0 110 220 0 220 0 0 -110z m900 0 l0 -110 -220 0 -220 0 0 110 0
110 220 0 220 0 0 -110z m-2250 -220 l0 -110 -220 0 -220 0 0 110 0 110 220 0
220 0 0 -110z m1800 0 l0 -110 -220 0 -220 0 0 110 0 110 220 0 220 0 0 -110z
m-4050 -230 l0 -110 -219 0 -220 0 -3 110 -3 110 223 0 222 0 0 -110z m900 0
l0 -110 -225 0 -225 0 0 110 0 110 225 0 225 0 0 -110z m900 0 l0 -110 -220 0
-220 0 0 110 0 110 220 0 220 0 0 -110z m902 0 l-3 -110 -220 0 -219 0 0 110
0 110 223 0 222 0 -3 -110z m898 0 l0 -110 -220 0 -220 0 0 110 0 110 220 0
220 0 0 -110z m-4050 -220 l0 -109 -221 -3 c-121 -2 -221 -2 -222 -1 -1 1 -1
51 1 112 l3 111 220 0 219 0 0 -110z m1808 -2 l3 -108 -231 0 -230 0 0 103 c0
57 3 107 7 111 4 3 106 5 227 4 l221 -3 3 -107z m1792 0 l0 -113 -220 3 -220
3 0 109 0 110 220 0 220 0 0 -112z m-4050 -228 l0 -110 -220 0 -220 0 0 110 0
110 220 0 220 0 0 -110z m900 0 l0 -110 -220 0 -220 0 0 110 0 110 220 0 220
0 0 -110z m900 0 l0 -110 -225 0 -225 0 0 110 0 110 225 0 225 0 0 -110z m900
0 l0 -110 -220 0 -220 0 0 110 0 110 220 0 220 0 0 -110z m900 0 l0 -110 -220
0 -220 0 0 110 0 110 220 0 220 0 0 -110z m-2252 -230 l3 -110 224 0 225 0 0
-110 0 -110 -225 0 -225 0 0 110 0 110 -220 0 -220 0 0 113 0 112 217 -2 218
-2 3 -111z m1802 3 l0 -113 -220 0 -220 0 0 113 0 112 220 0 220 0 0 -112z
m-2250 -223 l0 -110 -220 0 -220 0 0 110 0 110 220 0 220 0 0 -110z m1800 0
l0 -110 -220 0 -220 0 0 110 0 110 220 0 220 0 0 -110z m900 0 l0 -110 -220 0
-220 0 0 110 0 110 220 0 220 0 0 -110z m-1342 -222 l3 -108 -231 0 -230 0 0
103 c0 57 3 107 7 111 4 3 106 5 227 4 l221 -3 3 -107z m-458 -228 l0 -110
-225 0 -225 0 0 110 0 110 225 0 225 0 0 -110z m900 0 l0 -110 -220 0 -220 0
0 110 0 110 220 0 220 0 0 -110z"/>
<path d="M14194 10097 c-2 -7 -3 -58 -2 -113 l3 -99 228 -3 227 -2 0 -110 0
-110 225 0 225 0 0 -115 0 -115 225 0 225 0 0 -110 0 -110 225 0 225 0 0 -115
0 -115 225 0 225 0 0 -110 0 -110 225 0 225 0 0 -115 0 -115 225 0 225 0 0
-110 0 -110 225 0 225 0 0 -115 0 -115 225 0 225 0 0 -115 0 -115 223 0 222 0
-3 -101 c-3 -76 0 -104 10 -110 7 -5 61 -9 121 -9 l107 0 0 -332 0 -333 -106
3 c-71 2 -110 -1 -120 -9 -10 -8 -14 -37 -14 -115 l0 -104 -220 0 -220 0 0
-115 0 -115 -225 0 -225 0 0 -110 0 -110 -225 0 -225 0 0 -115 0 -115 -225 0
-225 0 0 -110 0 -110 -225 0 -225 0 0 -112 0 -113 -222 0 -223 0 -3 -112 -3
-113 -224 0 -225 0 0 -115 0 -115 -225 0 -225 0 0 -110 0 -110 -225 0 -225 0
0 -115 0 -115 230 0 230 0 0 110 0 110 223 2 222 3 3 113 3 112 224 0 225 0 0
110 0 110 225 0 225 0 0 115 0 115 225 0 225 0 0 110 0 110 223 2 222 3 3 113
3 112 224 0 225 0 0 110 0 110 223 2 222 3 3 113 3 112 224 0 225 0 0 110 0
110 225 0 225 0 0 565 0 565 -225 0 -225 0 0 115 0 115 -225 0 -225 0 0 110 0
110 -225 0 -225 0 0 115 0 115 -225 0 -225 0 0 110 0 110 -225 0 -224 0 -3
113 -3 112 -222 3 -223 2 0 110 0 110 -225 0 -225 0 0 115 0 115 -225 0 -225
0 0 110 0 110 -225 0 -225 0 0 115 0 115 -230 0 -230 0 0 110 0 110 -225 0
c-178 0 -227 -3 -231 -13z"/>
<path d="M14634 9770 c0 -58 1 -81 3 -52 2 28 2 76 0 105 -2 28 -3 5 -3 -53z"/>
<path d="M13994 9330 c0 -58 1 -81 3 -52 2 28 2 76 0 105 -2 28 -3 5 -3 -53z"/>
<path d="M9132 9003 c59 -2 158 -2 220 0 62 1 14 3 -107 3 -121 0 -172 -2
-113 -3z"/>
<path d="M14552 9003 c59 -2 158 -2 220 0 62 1 14 3 -107 3 -121 0 -172 -2
-113 -3z"/>
<path d="M6114 7965 c0 -60 1 -84 3 -52 2 32 2 81 0 110 -2 29 -3 3 -3 -58z"/>
<path d="M13994 7970 c0 -58 1 -81 3 -52 2 28 2 76 0 105 -2 28 -3 5 -3 -53z"/>
<path d="M13080 6850 l0 -110 -225 0 -225 0 0 -115 0 -115 -225 0 -225 0 0
-115 0 -115 -225 0 -225 0 0 -110 0 -110 -345 0 -345 0 0 -115 0 -115 115 0
115 0 0 -115 0 -115 225 0 225 0 0 -110 0 -110 223 -2 222 -3 5 -110 5 -110
228 -3 227 -2 0 115 c0 63 3 114 8 114 4 -1 107 -1 230 0 l222 1 0 110 0 110
220 0 220 0 1 108 c1 59 1 110 0 115 0 4 100 7 224 7 l225 0 0 110 0 110 224
0 c149 0 227 4 231 11 4 6 4 109 0 230 l-8 219 -223 0 -223 0 -3 113 -3 112
-222 3 -223 2 0 110 0 110 -225 0 -225 0 0 -110z"/>
<path d="M2602 6523 c59 -2 158 -2 220 0 62 1 14 3 -107 3 -121 0 -172 -2
-113 -3z"/>
<path d="M17912 6523 c59 -2 158 -2 220 0 62 1 14 3 -107 3 -121 0 -172 -2
-113 -3z"/>
<path d="M13994 5940 c0 -58 1 -81 3 -52 2 28 2 76 0 105 -2 28 -3 5 -3 -53z"/>
<path d="M14634 4830 c0 -58 1 -81 3 -52 2 28 2 76 0 105 -2 28 -3 5 -3 -53z"/>
<path d="M14197 4714 c-4 -4 -7 -56 -7 -116 l0 -108 -220 0 -220 0 0 -115 0
-115 -225 0 -225 0 0 -115 0 -115 -225 0 -225 0 0 -110 0 -110 -225 0 -225 0
0 -115 0 -115 -225 0 -225 0 0 -110 0 -110 -225 0 -225 0 0 -112 0 -113 -227
0 -228 0 -3 -112 -3 -113 -222 -2 -222 -3 -5 -107 c-4 -84 -2 -109 8 -113 8
-3 112 -5 233 -5 l219 0 0 110 0 110 225 0 224 0 3 113 3 112 228 3 227 2 0
110 0 110 220 0 219 0 3 113 3 112 223 3 222 2 0 110 0 110 225 0 224 0 3 113
3 112 223 3 222 2 0 110 0 110 225 0 225 0 0 115 0 115 225 0 226 0 -3 118 -3
117 -221 3 c-121 1 -223 -1 -227 -4z"/>
<path d="M12962 4043 c59 -2 158 -2 220 0 62 1 14 3 -107 3 -121 0 -172 -2
-113 -3z"/>
</g>
</svg>
